<svg xmlns="http://www.w3.org/2000/svg" width="360.831" height="360.831" viewBox="0 0 360.831 360.831">
  <g id="Grupo_450" data-name="Grupo 450" transform="translate(-401.049 -540.743)">
    <circle id="Elipse_45" data-name="Elipse 45" cx="178.415" cy="178.415" r="178.415" transform="translate(403.049 542.743)" fill="none" stroke="#005797" stroke-miterlimit="10" stroke-width="4"/>
    <path id="Trazado_211" data-name="Trazado 211" d="M-23.826,0h4l2.508-9.086L-14.806,0h4l4.246-15.4h-3.7L-12.914-4.62l-2.97-10.78h-2.86l-2.97,10.78L-24.376-15.4h-3.7ZM.88-11.308A3.762,3.762,0,0,0-2.266-9.966V-15.4h-3.3V0h3.3V-6.006c0-1.562.836-2.266,2.046-2.266a1.814,1.814,0,0,1,1.914,2V0h3.3V-6.754C4.994-9.724,3.1-11.308.88-11.308ZM15.246-11v1.034a4.132,4.132,0,0,0-3.278-1.342A5.524,5.524,0,0,0,6.71-5.5,5.524,5.524,0,0,0,11.968.308a4.132,4.132,0,0,0,3.278-1.342V0h3.3V-11ZM12.628-2.816A2.512,2.512,0,0,1,10.01-5.5a2.512,2.512,0,0,1,2.618-2.684A2.512,2.512,0,0,1,15.246-5.5,2.512,2.512,0,0,1,12.628-2.816ZM27.412-7.832V-11H25.146v-3.08l-3.3.99V-11h-1.76v3.168h1.76v3.894C21.846-.858,23.1.44,27.412,0V-2.992c-1.452.088-2.266,0-2.266-.946V-7.832Z" transform="translate(581.464 568.212) rotate(180)" fill="#005797"/>
    <path id="Trazado_213" data-name="Trazado 213" d="M-23.826,0h4l2.508-9.086L-14.806,0h4l4.246-15.4h-3.7L-12.914-4.62l-2.97-10.78h-2.86l-2.97,10.78L-24.376-15.4h-3.7ZM.88-11.308A3.762,3.762,0,0,0-2.266-9.966V-15.4h-3.3V0h3.3V-6.006c0-1.562.836-2.266,2.046-2.266a1.814,1.814,0,0,1,1.914,2V0h3.3V-6.754C4.994-9.724,3.1-11.308.88-11.308ZM15.246-11v1.034a4.132,4.132,0,0,0-3.278-1.342A5.524,5.524,0,0,0,6.71-5.5,5.524,5.524,0,0,0,11.968.308a4.132,4.132,0,0,0,3.278-1.342V0h3.3V-11ZM12.628-2.816A2.512,2.512,0,0,1,10.01-5.5a2.512,2.512,0,0,1,2.618-2.684A2.512,2.512,0,0,1,15.246-5.5,2.512,2.512,0,0,1,12.628-2.816ZM27.412-7.832V-11H25.146v-3.08l-3.3.99V-11h-1.76v3.168h1.76v3.894C21.846-.858,23.1.44,27.412,0V-2.992c-1.452.088-2.266,0-2.266-.946V-7.832Z" transform="translate(702.473 823.348) rotate(-47.816)" fill="#005797"/>
    <path id="Trazado_212" data-name="Trazado 212" d="M-23.826,0h4l2.508-9.086L-14.806,0h4l4.246-15.4h-3.7L-12.914-4.62l-2.97-10.78h-2.86l-2.97,10.78L-24.376-15.4h-3.7ZM.88-11.308A3.762,3.762,0,0,0-2.266-9.966V-15.4h-3.3V0h3.3V-6.006c0-1.562.836-2.266,2.046-2.266a1.814,1.814,0,0,1,1.914,2V0h3.3V-6.754C4.994-9.724,3.1-11.308.88-11.308ZM15.246-11v1.034a4.132,4.132,0,0,0-3.278-1.342A5.524,5.524,0,0,0,6.71-5.5,5.524,5.524,0,0,0,11.968.308a4.132,4.132,0,0,0,3.278-1.342V0h3.3V-11ZM12.628-2.816A2.512,2.512,0,0,1,10.01-5.5a2.512,2.512,0,0,1,2.618-2.684A2.512,2.512,0,0,1,15.246-5.5,2.512,2.512,0,0,1,12.628-2.816ZM27.412-7.832V-11H25.146v-3.08l-3.3.99V-11h-1.76v3.168h1.76v3.894C21.846-.858,23.1.44,27.412,0V-2.992c-1.452.088-2.266,0-2.266-.946V-7.832Z" transform="matrix(0.709, 0.705, -0.705, 0.709, 468.104, 830.771)" fill="#005797"/>
  </g>
</svg>
