<svg xmlns="http://www.w3.org/2000/svg" width="97.458" height="97.458" viewBox="0 0 97.458 97.458">
  <g id="Grupo_452" data-name="Grupo 452" transform="translate(-331.735 -898.429)">
    <circle id="Elipse_47" data-name="Elipse 47" cx="47.229" cy="47.229" r="47.229" transform="translate(333.235 899.929)" fill="none" stroke="#29abe2" stroke-miterlimit="10" stroke-width="3"/>
    <path id="Trazado_217" data-name="Trazado 217" d="M-18.425,0h4l2.508-9.086L-9.4,0h4l4.246-15.4h-3.7L-7.513-4.62l-2.97-10.78h-2.86l-2.97,10.78L-18.975-15.4h-3.7ZM6.281-11.308A3.762,3.762,0,0,0,3.135-9.966V-15.4h-3.3V0h3.3V-6.006c0-1.562.836-2.266,2.046-2.266a1.814,1.814,0,0,1,1.914,2V0h3.3V-6.754C10.4-9.724,8.5-11.308,6.281-11.308ZM19.371-11,17.3-4.268,14.861-11h-3.63L15.609-.506a2.452,2.452,0,0,1-2.75,1.826V4.4c3.08.154,5.038-1.232,6.27-4.73L22.891-11Z" transform="translate(380.464 953.153)" fill="#005797"/>
  </g>
</svg>
