<svg xmlns="http://www.w3.org/2000/svg" xmlns:xlink="http://www.w3.org/1999/xlink" width="361.928" height="360.771" viewBox="0 0 361.928 360.771">
  <defs>
    <linearGradient id="linear-gradient" x1="-8.93" y1="13.328" x2="5.967" y2="-6.946" gradientUnits="objectBoundingBox">
      <stop offset="0" stop-color="#63dfea"/>
      <stop offset="0.485" stop-color="#8585ff"/>
      <stop offset="1" stop-color="#ffb039"/>
    </linearGradient>
    <linearGradient id="linear-gradient-2" x1="-6.161" y1="9.497" x2="8.819" y2="-10.775" xlink:href="#linear-gradient"/>
    <linearGradient id="linear-gradient-3" x1="-3.403" y1="5.971" x2="11.311" y2="-14.662" xlink:href="#linear-gradient"/>
    <linearGradient id="linear-gradient-4" x1="-1.363" y1="3.13" x2="13.292" y2="-17.516" xlink:href="#linear-gradient"/>
    <linearGradient id="linear-gradient-5" x1="-0.287" y1="1.608" x2="14.476" y2="-18.921" xlink:href="#linear-gradient"/>
    <linearGradient id="linear-gradient-6" x1="-0.355" y1="1.686" x2="14.406" y2="-18.833" xlink:href="#linear-gradient"/>
    <linearGradient id="linear-gradient-7" x1="-1.587" y1="3.304" x2="13.471" y2="-16.934" xlink:href="#linear-gradient"/>
    <linearGradient id="linear-gradient-8" x1="-3.714" y1="6.203" x2="11.211" y2="-14.005" xlink:href="#linear-gradient"/>
    <linearGradient id="linear-gradient-9" x1="-6.41" y1="9.935" x2="8.505" y2="-10.399" xlink:href="#linear-gradient"/>
    <linearGradient id="linear-gradient-10" x1="-9.151" y1="13.785" x2="5.661" y2="-6.602" xlink:href="#linear-gradient"/>
    <linearGradient id="linear-gradient-11" x1="-11.435" y1="17.44" x2="3.234" y2="-3.38" xlink:href="#linear-gradient"/>
    <linearGradient id="linear-gradient-12" x1="-13.035" y1="19.404" x2="1.645" y2="-1.11" xlink:href="#linear-gradient"/>
    <linearGradient id="linear-gradient-13" x1="-13.604" y1="20.213" x2="1.129" y2="-0.383" xlink:href="#linear-gradient"/>
    <linearGradient id="linear-gradient-14" x1="-13.097" y1="19.078" x2="1.784" y2="-1.252" xlink:href="#linear-gradient"/>
    <linearGradient id="linear-gradient-15" x1="-11.527" y1="16.638" x2="3.528" y2="-3.557" xlink:href="#linear-gradient"/>
  </defs>
  <g id="Grupo_401" data-name="Grupo 401" transform="translate(-259.433 -4675.568)">
    <g id="Grupo_400" data-name="Grupo 400">
      <g id="Grupo_399" data-name="Grupo 399">
        <g id="Grupo_398" data-name="Grupo 398">
          <g id="Grupo_383" data-name="Grupo 383">
            <path id="Trazado_174" data-name="Trazado 174" d="M602.146,4919a7.73,7.73,0,0,1-4.438-9.67,7.642,7.642,0,0,1,3.887-4.214,7.483,7.483,0,0,1,5.649-.581,7.3,7.3,0,0,1,4.453,3.747,7.854,7.854,0,0,1,.157,5.973C610.325,4918.443,605.969,4920.565,602.146,4919Z" fill-rule="evenodd" fill="url(#linear-gradient)"/>
          </g>
          <g id="Grupo_384" data-name="Grupo 384">
            <path id="Trazado_175" data-name="Trazado 175" d="M561.874,4979.353a7.34,7.34,0,0,1-2.086-5.26,7.526,7.526,0,0,1,12.554-5.948c3.151,2.668,3.293,7.51.3,10.8a7.855,7.855,0,0,1-5.362,2.63A7.424,7.424,0,0,1,561.874,4979.353Z" fill-rule="evenodd" fill="url(#linear-gradient-2)"/>
          </g>
          <g id="Grupo_385" data-name="Grupo 385">
            <path id="Trazado_176" data-name="Trazado 176" d="M500.507,5018.038a7.683,7.683,0,0,1,14.129-5.939,7.665,7.665,0,1,1-14.129,5.939Z" fill-rule="evenodd" fill="url(#linear-gradient-3)"/>
          </g>
          <g id="Grupo_386" data-name="Grupo 386">
            <path id="Trazado_177" data-name="Trazado 177" d="M428.735,5028.442a7.589,7.589,0,0,1,7.819-7.1c4.02.37,7.38,3.269,7.506,7.473a7.341,7.341,0,0,1-7.815,7.5A7.587,7.587,0,0,1,428.735,5028.442Z" fill-rule="evenodd" fill="url(#linear-gradient-4)"/>
          </g>
          <g id="Grupo_387" data-name="Grupo 387">
            <path id="Trazado_178" data-name="Trazado 178" d="M358.875,5008.926a7.8,7.8,0,0,1,10.108-3.448,7.978,7.978,0,0,1,3.742,10.047c-1.609,3.928-6.107,5.414-10.128,3.5C358.585,5017.1,356.922,5012.563,358.875,5008.926Z" fill-rule="evenodd" fill="url(#linear-gradient-5)"/>
          </g>
          <g id="Grupo_388" data-name="Grupo 388">
            <path id="Trazado_179" data-name="Trazado 179" d="M303.112,4962.509a7.884,7.884,0,0,1,10.557,1.007,7.63,7.63,0,0,1-.511,10.574c-2.98,2.857-7.834,2.514-10.824-.782A7.336,7.336,0,0,1,303.112,4962.509Z" fill-rule="evenodd" fill="url(#linear-gradient-6)"/>
          </g>
          <g id="Grupo_389" data-name="Grupo 389">
            <path id="Trazado_180" data-name="Trazado 180" d="M271.033,4897.46a7.483,7.483,0,0,1,9.085,5.269,7.492,7.492,0,1,1-9.085-5.269Z" fill-rule="evenodd" fill="url(#linear-gradient-7)"/>
          </g>
          <g id="Grupo_390" data-name="Grupo 390">
            <path id="Trazado_181" data-name="Trazado 181" d="M268.142,4824.987a7.619,7.619,0,0,1,6.276,8.516,7.9,7.9,0,0,1-8.229,6.69,7.316,7.316,0,0,1-6.633-8.549C260.222,4827.242,264.077,4824.262,268.142,4824.987Z" fill-rule="evenodd" fill="url(#linear-gradient-8)"/>
          </g>
          <g id="Grupo_391" data-name="Grupo 391">
            <path id="Trazado_182" data-name="Trazado 182" d="M294.854,4757.536a7.674,7.674,0,0,1-7.967,13.114c-3.636-1.956-4.728-6.634-2.417-10.439S291.441,4755.214,294.854,4757.536Z" fill-rule="evenodd" fill="url(#linear-gradient-9)"/>
          </g>
          <g id="Grupo_392" data-name="Grupo 392">
            <path id="Trazado_183" data-name="Trazado 183" d="M346.892,4706.967c2.241,3.6,1.035,7.859-2.145,10.33A7.492,7.492,0,1,1,336.188,4705,7.457,7.457,0,0,1,346.892,4706.967Z" fill-rule="evenodd" fill="url(#linear-gradient-10)"/>
          </g>
          <g id="Grupo_393" data-name="Grupo 393">
            <path id="Trazado_184" data-name="Trazado 184" d="M414.929,4681.867a7.532,7.532,0,0,1-6.19,8.519,8.713,8.713,0,0,1-5.551-1.087,7.429,7.429,0,0,1-3.324-4.61,7.333,7.333,0,0,1,1.028-5.725,7.05,7.05,0,0,1,5.056-3.294A7.638,7.638,0,0,1,414.929,4681.867Z" fill-rule="evenodd" fill="url(#linear-gradient-11)"/>
          </g>
          <g id="Grupo_394" data-name="Grupo 394">
            <path id="Trazado_185" data-name="Trazado 185" d="M487.314,4686.51a7.668,7.668,0,0,1-9.137,5.385,8.077,8.077,0,0,1-4.6-3.394,7.306,7.306,0,0,1,8.012-11.192C485.9,4678.414,488.463,4682.544,487.314,4686.51Z" fill-rule="evenodd" fill="url(#linear-gradient-12)"/>
          </g>
          <g id="Grupo_395" data-name="Grupo 395">
            <path id="Trazado_186" data-name="Trazado 186" d="M551.589,4720.169a7.972,7.972,0,0,1-10.64,1.32,7.8,7.8,0,0,1-1.608-10.559c2.325-3.411,7.108-4.032,10.673-1.366C553.564,4712.248,554.326,4716.928,551.589,4720.169Z" fill-rule="evenodd" fill="url(#linear-gradient-13)"/>
          </g>
          <g id="Grupo_396" data-name="Grupo 396">
            <path id="Trazado_187" data-name="Trazado 187" d="M596.44,4777.206a7.547,7.547,0,0,1-9.981-3.251,7.467,7.467,0,0,1,2.58-10.171,7.665,7.665,0,1,1,7.4,13.422Z" fill-rule="evenodd" fill="url(#linear-gradient-14)"/>
          </g>
          <g id="Grupo_397" data-name="Grupo 397">
            <path id="Trazado_188" data-name="Trazado 188" d="M614.277,4847.494a7.562,7.562,0,0,1-7.854-7.044c-.028-4.038,2.431-7.67,6.636-8.236a7.368,7.368,0,0,1,8.291,7A7.61,7.61,0,0,1,614.277,4847.494Z" fill-rule="evenodd" fill="url(#linear-gradient-15)"/>
          </g>
        </g>
      </g>
    </g>
  </g>
</svg>
