<svg xmlns="http://www.w3.org/2000/svg" width="244.263" height="244.263" viewBox="0 0 244.263 244.263">
  <g id="Grupo_451" data-name="Grupo 451" transform="translate(-258.332 -825.027)">
    <g id="Grupo_449" data-name="Grupo 449">
      <g id="Grupo_448" data-name="Grupo 448">
        <circle id="Elipse_46" data-name="Elipse 46" cx="120.632" cy="120.632" r="120.632" transform="translate(259.832 826.527)" fill="none" stroke="#ffd216" stroke-miterlimit="10" stroke-width="3"/>
      </g>
    </g>
    <path id="Trazado_215" data-name="Trazado 215" d="M-12.32-15.4v5.9h-4.84v-5.9h-3.52V0h3.52V-6.116h4.84V0H-8.8V-15.4ZM-.99.308A5.766,5.766,0,0,0,4.84-5.5,5.766,5.766,0,0,0-.99-11.308,5.766,5.766,0,0,0-6.82-5.5,5.766,5.766,0,0,0-.99.308Zm0-3.212A2.467,2.467,0,0,1-3.52-5.5,2.467,2.467,0,0,1-.99-8.1,2.467,2.467,0,0,1,1.54-5.5,2.467,2.467,0,0,1-.99-2.9ZM18.37-11,16.786-5.1,15.07-11H11.99L10.274-5.1,8.69-11H5.17L8.69,0h3.08l1.76-5.874L15.29,0h3.08l3.52-11Z" transform="translate(451.501 1004.826) rotate(-42.095)" fill="#005797"/>
    <path id="Trazado_216" data-name="Trazado 216" d="M-12.32-15.4v5.9h-4.84v-5.9h-3.52V0h3.52V-6.116h4.84V0H-8.8V-15.4ZM-.99.308A5.766,5.766,0,0,0,4.84-5.5,5.766,5.766,0,0,0-.99-11.308,5.766,5.766,0,0,0-6.82-5.5,5.766,5.766,0,0,0-.99.308Zm0-3.212A2.467,2.467,0,0,1-3.52-5.5,2.467,2.467,0,0,1-.99-8.1,2.467,2.467,0,0,1,1.54-5.5,2.467,2.467,0,0,1-.99-2.9ZM18.37-11,16.786-5.1,15.07-11H11.99L10.274-5.1,8.69-11H5.17L8.69,0h3.08l1.76-5.874L15.29,0h3.08l3.52-11Z" transform="translate(313.323 1009.827) rotate(42.184)" fill="#005797"/>
    <path id="Trazado_214" data-name="Trazado 214" d="M-12.32-15.4v5.9h-4.84v-5.9h-3.52V0h3.52V-6.116h4.84V0H-8.8V-15.4ZM-.99.308A5.766,5.766,0,0,0,4.84-5.5,5.766,5.766,0,0,0-.99-11.308,5.766,5.766,0,0,0-6.82-5.5,5.766,5.766,0,0,0-.99.308Zm0-3.212A2.467,2.467,0,0,1-3.52-5.5,2.467,2.467,0,0,1-.99-8.1,2.467,2.467,0,0,1,1.54-5.5,2.467,2.467,0,0,1-.99-2.9ZM18.37-11,16.786-5.1,15.07-11H11.99L10.274-5.1,8.69-11H5.17L8.69,0h3.08l1.76-5.874L15.29,0h3.08l3.52-11Z" transform="translate(382.896 862.568) rotate(180)" fill="#005797"/>
  </g>
</svg>
