<svg xmlns="http://www.w3.org/2000/svg" width="20.913" height="20.913" viewBox="0 0 20.913 20.913">
  <g id="Grupo_134" data-name="Grupo 134" transform="translate(-3554.038 -888.671)">
    <g id="Grupo_133" data-name="Grupo 133">
      <g id="Grupo_126" data-name="Grupo 126">
        <g id="Grupo_125" data-name="Grupo 125">
          <path id="Trazado_71" data-name="Trazado 71" d="M3574.951,890.344v17.567a2.391,2.391,0,0,1-1.673,1.673h-17.567a2.389,2.389,0,0,1-1.673-1.673V890.344a2.394,2.394,0,0,1,1.673-1.673h17.567A2.387,2.387,0,0,1,3574.951,890.344Zm-10.456-.372q-4.16,0-8.318,0c-.688,0-.837.151-.837.849q0,8.293,0,16.588c0,.73.14.872.861.872q8.294,0,16.588,0c.721,0,.861-.142.861-.872V890.868c0-.761-.133-.9-.885-.9Z" fill="#005797"/>
        </g>
      </g>
      <g id="Grupo_127" data-name="Grupo 127">
        <path id="Trazado_72" data-name="Trazado 72" d="M3571.662,893.929v1.231h-10.385v-1.231Z" fill="#005797"/>
      </g>
      <g id="Grupo_128" data-name="Grupo 128">
        <path id="Trazado_73" data-name="Trazado 73" d="M3561.272,904.309V903.1h10.374v1.213Z" fill="#005797"/>
      </g>
      <g id="Grupo_129" data-name="Grupo 129">
        <path id="Trazado_74" data-name="Trazado 74" d="M3571.668,898.535v1.185h-10.4v-1.185Z" fill="#005797"/>
      </g>
      <g id="Grupo_130" data-name="Grupo 130">
        <path id="Trazado_75" data-name="Trazado 75" d="M3558.633,895.839a1.42,1.42,0,0,1-1.324-1.255,1.436,1.436,0,0,1,1.306-1.332,1.418,1.418,0,0,1,1.287,1.292A1.378,1.378,0,0,1,3558.633,895.839Z" fill="#005797"/>
      </g>
      <g id="Grupo_131" data-name="Grupo 131">
        <path id="Trazado_76" data-name="Trazado 76" d="M3558.623,902.415a1.377,1.377,0,0,1,1.279,1.284,1.421,1.421,0,0,1-1.277,1.3,1.443,1.443,0,0,1-1.316-1.323A1.422,1.422,0,0,1,3558.623,902.415Z" fill="#005797"/>
      </g>
      <g id="Grupo_132" data-name="Grupo 132">
        <path id="Trazado_77" data-name="Trazado 77" d="M3558.612,900.412a1.285,1.285,0,1,1,.024-2.57,1.285,1.285,0,0,1-.024,2.57Z" fill="#005797"/>
      </g>
    </g>
  </g>
</svg>
